<svg width="19" height="19" xmlns="http://www.w3.org/2000/svg">
    <g fill="#346799" fill-rule="evenodd">
        <path d="M17.376 15.121c0 1.295-1.072 2.348-2.39 2.348H7.829c-1.318 0-2.39-1.053-2.39-2.348v-.226h5.635c2.16 0 3.917-1.726 3.917-3.848V5.74c1.316.003 2.385 1.055 2.385 2.348v7.032zM3.917 13.395c-1.318 0-2.39-1.054-2.39-2.348V4.015c0-1.295 1.072-2.348 2.39-2.348h7.157c1.318 0 2.39 1.053 2.39 2.348v7.032c0 1.294-1.072 2.348-2.39 2.348H3.917zm11.074-9.154v-.226c0-2.122-1.757-3.848-3.917-3.848H3.917C1.757.167 0 1.893 0 4.015v7.032c0 2.12 1.754 3.845 3.912 3.848v.226c0 2.122 1.757 3.848 3.917 3.848h7.157c2.16 0 3.917-1.726 3.917-3.848V8.089c0-2.12-1.754-3.845-3.912-3.848z"/>
        <path d="M4.542 6.197h5.907c.377 0 .682-.336.682-.75s-.305-.75-.682-.75H4.542c-.376 0-.681.336-.681.75s.305.75.681.75M11.13 9.434c0-.414-.304-.75-.68-.75H4.541c-.376 0-.681.336-.681.75 0 .415.305.75.681.75h5.907c.377 0 .682-.335.682-.75"/>
    </g>
</svg>
