<?xml version="1.0" encoding="UTF-8"?>
<svg width="19px" height="19px" viewBox="0 0 19 19" version="1.1" xmlns="http://www.w3.org/2000/svg" xmlns:xlink="http://www.w3.org/1999/xlink">
    <title>2524A159-2F84-414C-80B9-380C30A1DBE7</title>
    <g id="Guides" stroke="none" stroke-width="1" fill="none" fill-rule="evenodd" opacity="0.494231468">
        <g id="00.02-UI-GUIDE" transform="translate(-1658.000000, -775.000000)" fill="#346799">
            <g id="ic_copy" transform="translate(1658.000000, 775.000000)">
                <path d="M17.3763821,15.12095 C17.3763821,16.41595 16.3040696,17.4692833 14.9859446,17.4692833 L7.82888214,17.4692833 C6.51092679,17.4692833 5.43861429,16.41595 5.43861429,15.12095 L5.43861429,14.8951167 L11.07415,14.8951167 C13.2342125,14.8951167 14.9913732,13.1686167 14.9913732,11.0466167 L14.9913732,5.74128333 C16.3069536,5.74411667 17.3763821,6.79628333 17.3763821,8.08945 L17.3763821,15.12095 Z M3.9170875,13.3951167 C2.59913214,13.3951167 1.52681964,12.34145 1.52681964,11.0466167 L1.52681964,4.01511667 C1.52681964,2.72028333 2.59913214,1.66661667 3.9170875,1.66661667 L11.07415,1.66661667 C12.392275,1.66661667 13.4645875,2.72028333 13.4645875,4.01511667 L13.4645875,11.0466167 C13.4645875,12.34145 12.392275,13.3951167 11.07415,13.3951167 L3.9170875,13.3951167 Z M14.9913732,4.24111667 L14.9913732,4.01511667 C14.9913732,1.89311667 13.2342125,0.166616667 11.07415,0.166616667 L3.9170875,0.166616667 C1.75719464,0.166616667 3.39285714e-05,1.89311667 3.39285714e-05,4.01511667 L3.39285714e-05,11.0466167 C3.39285714e-05,13.16695 1.75448036,14.89195 3.91182857,14.89495 L3.91182857,15.12095 C3.91182857,17.24295 5.66898929,18.9692833 7.82888214,18.9692833 L14.9859446,18.9692833 C17.1460071,18.9692833 18.9031679,17.24295 18.9031679,15.12095 L18.9031679,8.08945 C18.9031679,5.96911667 17.1488911,4.24395 14.9913732,4.24111667 L14.9913732,4.24111667 Z" id="Fill-1"></path>
                <path d="M4.54200089,6.19686667 L10.4493045,6.19686667 C10.825742,6.19686667 11.1307598,5.86103333 11.1307598,5.44686667 C11.1307598,5.0327 10.825742,4.69686667 10.4493045,4.69686667 L4.54200089,4.69686667 C4.16556339,4.69686667 3.86054554,5.0327 3.86054554,5.44686667 C3.86054554,5.86103333 4.16556339,6.19686667 4.54200089,6.19686667" id="Fill-4"></path>
                <path d="M11.1308277,9.4345 C11.1308277,9.02033333 10.8258098,8.6845 10.4493723,8.6845 L4.54206875,8.6845 C4.16563125,8.6845 3.86061339,9.02033333 3.86061339,9.4345 C3.86061339,9.84866667 4.16563125,10.1845 4.54206875,10.1845 L10.4493723,10.1845 C10.8258098,10.1845 11.1308277,9.84866667 11.1308277,9.4345" id="Fill-6"></path>
            </g>
        </g>
    </g>
</svg>