<svg width="20" height="18" xmlns="http://www.w3.org/2000/svg">
    <path d="M10.433.105c.327 0 .593.248.593.556 0 .307-.266.556-.593.556H2.427c-.165 0-.3.126-.3.28v15.006c0 .155.135.28.3.28h8.006c.327 0 .593.25.593.556 0 .307-.266.556-.593.556H2.427c-.819 0-1.486-.625-1.486-1.392V1.497C.941.73 1.608.105 2.427.105zm5.363 5.842 3.064 3.032a.552.552 0 0 1 0 .786l-3.064 3.033a.565.565 0 0 1-.794 0 .551.551 0 0 1 0-.786l2.046-2.027H6.413a.547.547 0 0 1-.55-.544c0-.3.246-.544.55-.544h10.775l-2.186-2.164a.551.551 0 0 1 0-.786.565.565 0 0 1 .794 0z" fill="#ffffff" fill-rule="nonzero" stroke="#346799" stroke-width=".2"/>
</svg>
