<?xml version="1.0" encoding="UTF-8"?>
<svg width="12px" height="12px" viewBox="0 0 12 12" version="1.1" xmlns="http://www.w3.org/2000/svg" xmlns:xlink="http://www.w3.org/1999/xlink">
    <title>B74236EF-D364-4E23-8F06-38143EBEC561</title>
    <g id="Guides" stroke="none" stroke-width="1" fill="none" fill-rule="evenodd">
        <g id="00.02-UI-GUIDE" transform="translate(-1592.000000, -662.000000)" fill="#979797" fill-rule="nonzero">
            <g id="info-copy" transform="translate(1592.000000, 662.000000)">
                <path d="M6,0 C2.68385156,0 0,2.6835 0,6 C0,9.31614844 2.6835,12 6,12 C9.31614844,12 12,9.3165 12,6 C12,2.68385156 9.3165,0 6,0 Z M6,11.1627891 C3.15323438,11.1627891 0.837210938,8.84676562 0.837210938,6 C0.837210938,3.15323438 3.15323438,0.837210938 6,0.837210938 C8.84676562,0.837210938 11.1627891,3.15323438 11.1627891,6 C11.1627891,8.84676562 8.84676562,11.1627891 6,11.1627891 Z" id="Shape"></path>
                <path d="M6,4.77208594 C5.7688125,4.77208594 5.58140625,4.95951562 5.58140625,5.19067969 L5.58140625,8.62324219 C5.58140625,8.85442969 5.76883594,9.04183594 6,9.04183594 C6.23116406,9.04183594 6.41859375,8.85440625 6.41859375,8.62324219 L6.41859375,5.19070312 C6.41859375,4.95951562 6.2311875,4.77208594 6,4.77208594 Z" id="Path"></path>
                <path d="M6,2.95814062 C5.7688125,2.95814062 5.58140625,3.14557031 5.58140625,3.37673438 L5.58140625,3.87907031 C5.58140625,4.11025781 5.76883594,4.29766406 6,4.29766406 C6.23116406,4.29766406 6.41859375,4.11023438 6.41859375,3.87907031 L6.41859375,3.37673438 C6.41859375,3.14557031 6.2311875,2.95814062 6,2.95814062 Z" id="Path"></path>
            </g>
        </g>
    </g>
</svg>