<svg xmlns="http://www.w3.org/2000/svg" xmlns:xlink="http://www.w3.org/1999/xlink" width="134" height="25" viewBox="0 0 134 25">
    <defs>
        <path id="a" d="M0 .092h26.724v16.525H0z"/>
        <path id="c" d="M.66.62h3.148v3.925H.66z"/>
        <path id="e" d="M.716.576h.615v.757H.716z"/>
    </defs>
    <g fill="none" fill-rule="evenodd">
        <g transform="translate(0 .116)">
            <mask id="b" fill="#fff">
                <use xlink:href="#a"/>
            </mask>
            <path fill="#F29E2D" d="M26.476 8.354c-1.41 4.545-8.466 8.263-15.678 8.263-7.213 0-11.96-3.718-10.55-8.263C1.658 3.811 8.713.092 15.926.092c7.213 0 11.96 3.719 10.55 8.262" mask="url(#b)"/>
        </g>
        <path fill="#FEFEFE" d="M22.093 8.353H9.573c-.447 0-.783-.095-.747-.211l.538-1.73c.037-.115.433-.21.88-.21h12.52l.091.001.36-1.16c.146-.473-.18-.86-.728-.86H7.167c-.547 0-1.115.387-1.262.86L3.723 12.07c-.146.472.183.859.73.859h15.32c.546 0 1.115-.387 1.261-.859l1.154-3.72c-.031.001-.063.003-.095.003"/>
        <path fill="#FFF" d="M47.504.33H36.09c-2.327 0-4.756 1.808-5.4 4.017l-2.429 8.344c-.643 2.21.734 4.018 3.06 4.018h10.794a.37.37 0 0 0 .131.023h3.928a.547.547 0 0 0 .197-.04.595.595 0 0 0 .424-.387l.399-1.376.25-.757c.054-.162-.005-.303-.135-.364l-.007-.016h-.038a.385.385 0 0 0-.113-.017h-3.928a.5.5 0 0 0-.124.017h-3.353v-.002h-7.64c-.467 0-.729-.358-.582-.794l3.034-9.033c.147-.437.65-.794 1.117-.794h11.19c.468 0 .731.357.585.794L45.574 9.54c-.02-.003-.04-.006-.06-.006H34.812a.645.645 0 0 0-.567.394l-.705 1.972c-.078.217.05.395.284.395h10.699a.54.54 0 0 0 .132-.02l-.01.027h.212c.82 0 1.816-.502 2.552-1.106.334-.272.615-.565.802-.843l.12-.154.106-.14.143-.188.104-.17.111-.2.132-.281.138-.255.103-.214.103-.216.099-.26 1.193-3.929c.644-2.21-.733-4.018-3.06-4.018M73.797 3.21C73.804 1.39 72.57.182 70.588.182H58.442c-2.068 0-4.226 1.413-5.154 3.267a.473.473 0 0 0-.07.14l-.008.024c-.086.19-.16.382-.219.58L51.32 9.78l-1.251 4.08-.786 2.473c-.068.22.065.4.3.4h2.303c.01 0 .021-.003.032-.004h.332c.098-.012.118-.186.188-.396l.853-2.69 3.251-10.055c.07-.22.32-.4.554-.4h4.327c.152 0 .26.077.3.191l-4.145 12.955c-.07.219.064.398.298.398H60.838c.233 0 .481-.18.552-.398l4.078-12.748a.618.618 0 0 1 .553-.398h4.327c.234 0 .367.18.296.4l-4.12 12.743c-.08.234.105.398.2.398h2.637c.233 0 .48-.18.547-.4 0 0 1.102-3.355 1.178-3.61l2.552-8.527c.02-.068.04-.136.055-.204l.073-.422c0-.089.031-.314.031-.356M73.03 14.682c-.358 1.128.16 2.05 1.152 2.05.992 0 2.095-.922 2.452-2.05l3.856-12.17c.357-1.128-.161-2.05-1.153-2.05-.991 0-2.095.922-2.452 2.05l-3.855 12.17zM100.676 6.5c-.65-.863-1.847-1.358-3.287-1.358H86.064l.008.004a.246.246 0 0 1-.143-.08.152.152 0 0 1-.023-.138l.296-1.007.19-.65c.045-.147.249-.272.448-.272h10.492a.683.683 0 0 0 .619-.453l.622-2.05a.377.377 0 0 0-.052-.349.396.396 0 0 0-.325-.147h-9.835l-.008.004c-1.932.039-3.962 1.15-5.185 2.84l-.032.017-.253.138h.174a5.487 5.487 0 0 0-.711 1.453l-1.184 3.82h16.162c.235 0 .392.186.351.413l-.156.869a.569.569 0 0 1-.036.113.565.565 0 0 1-.009.05l-.85 3.81a.523.523 0 0 1-.517.39l-.014-.001a.447.447 0 0 1-.094.01H83.394a.354.354 0 0 1-.363-.413l.1-.674a.506.506 0 0 1 .487-.413h11.538l.551-2.46H80.64l-.704 2.272c-.368 1.193-.219 2.32.422 3.172.643.853 1.696 1.323 2.964 1.323h10.493c2.447 0 5.049-1.78 5.968-4.064l.045.024.028-.087 1.182-3.817c.256-.828.128-1.64-.36-2.29M29.406 21.593c.03-.232.043-.379.037-.442-.012-.176-.09-.29-.228-.338-.112-.04-.296-.06-.554-.06-.234 0-.402.012-.505.035a.59.59 0 0 0-.4.256c-.07.113-.123.297-.16.549h1.81zm-.119.773h.466l-.014.114c-.049.318-.228.532-.537.642-.198.07-.515.104-.95.104-.583 0-.952-.108-1.106-.326-.127-.182-.152-.537-.071-1.067.08-.518.207-.871.383-1.06.213-.226.616-.34 1.21-.34.43 0 .729.04.894.117.254.12.363.399.327.834-.008.093-.03.266-.066.52h-2.275c-.057.394-.056.646.006.755.09.154.341.23.758.23.491 0 .783-.06.873-.181.042-.055.076-.169.102-.342zM30.597 20.461h.465l-.08.413.01.008a.944.944 0 0 1 .342-.3 1.75 1.75 0 0 1 .758-.149c.533 0 .836.15.907.45h.009c.242-.3.627-.45 1.157-.45.411 0 .689.075.83.224.143.149.188.401.132.757l-.27 1.776h-.465l.277-1.814c.027-.177.022-.311-.014-.4-.056-.136-.25-.205-.58-.205-.479 0-.787.106-.924.316-.069.104-.122.282-.161.532l-.239 1.571h-.465l.271-1.776c.02-.125.03-.234.03-.327a.289.289 0 0 0-.026-.108c-.06-.139-.262-.208-.604-.208-.35 0-.609.071-.774.214-.154.132-.255.353-.302.662l-.235 1.543h-.465l.416-2.729z"/>
        <g transform="translate(34.655 19.813)">
            <mask id="d" fill="#fff">
                <use xlink:href="#c"/>
            </mask>
            <path fill="#FFF" d="M2.573.958c-.368-.001-.616.058-.747.18-.141.13-.247.428-.318.894-.059.38-.054.636.014.768.096.184.343.276.74.276.338 0 .566-.055.686-.164.151-.138.26-.43.328-.872.062-.401.067-.662.017-.783-.079-.197-.32-.296-.72-.299zM1.254.648h.465l-.083.348.012.008c.2-.255.565-.383 1.096-.383.518 0 .845.134.98.4.099.193.11.538.034 1.036-.07.46-.189.786-.357.98-.217.251-.57.377-1.062.377-.52 0-.844-.12-.978-.36h-.009l-.228 1.492H.66L1.254.649z" mask="url(#d)"/>
        </g>
        <path fill="#FFF" d="M39.211 20.461h.466l-.101.316.008.008a.97.97 0 0 1 .37-.287c.174-.067.371-.1.594-.1.58 0 .831.259.752.778-.005.036-.016.099-.032.188h-.465l.035-.221c.041-.272-.11-.408-.455-.408-.338 0-.574.094-.706.283-.074.103-.13.28-.168.534l-.25 1.638h-.463l.415-2.729zM43.837 21.593c.03-.232.044-.379.037-.442-.013-.176-.09-.29-.228-.338-.113-.04-.297-.06-.555-.06-.233 0-.4.012-.505.035a.592.592 0 0 0-.399.256c-.07.113-.124.297-.16.549h1.81zm-.118.773h.464c-.004.051-.01.089-.014.114-.047.318-.227.532-.536.642-.198.07-.514.104-.95.104-.583 0-.952-.108-1.105-.326-.129-.182-.153-.537-.073-1.067.08-.518.208-.871.384-1.06.213-.226.616-.34 1.21-.34.43 0 .73.04.893.117.254.12.364.399.327.834a8.512 8.512 0 0 1-.066.52h-2.272c-.059.394-.057.646.004.755.088.154.341.23.758.23.491 0 .783-.06.873-.181.043-.055.076-.169.103-.342zM47.35 21.177h-.465c.03-.214-.026-.345-.162-.394-.062-.02-.255-.03-.58-.03-.31 0-.502.01-.578.031-.174.05-.277.173-.307.372-.037.241.008.38.134.42.058.019.271.036.638.05.416.018.656.03.719.04.402.06.569.31.501.755-.044.286-.158.491-.345.615-.193.128-.574.19-1.142.19-.512 0-.855-.06-1.027-.184-.157-.112-.215-.298-.174-.56.005-.04.014-.092.027-.16h.479a.866.866 0 0 0-.038.131c-.03.191.01.318.122.38.085.049.3.074.647.074.39 0 .653-.037.783-.111.107-.061.175-.187.205-.378.023-.166.013-.276-.034-.333-.053-.064-.173-.098-.358-.1-.576-.005-.978-.033-1.203-.082-.197-.041-.325-.127-.382-.257-.046-.104-.053-.255-.022-.453.044-.29.149-.486.314-.585.197-.115.566-.175 1.109-.175.395 0 .673.029.831.085.258.094.367.28.324.56l-.016.099zM49.08 21.849c-.324 0-.537.017-.638.054-.18.064-.285.212-.32.444-.037.238.008.392.136.462.091.053.288.08.591.08.414 0 .7-.052.861-.157.097-.063.16-.177.185-.345.034-.231-.028-.385-.19-.46-.111-.053-.32-.078-.624-.078m-.671-.62h-.464c.037-.211.087-.364.153-.46.09-.132.241-.222.453-.27.182-.043.437-.065.764-.065.303 0 .53.017.677.051.247.058.402.174.468.347.05.133.058.32.02.565l-.274 1.793h-.465l.088-.293-.01-.004a.98.98 0 0 1-.517.285c-.14.033-.342.048-.606.048-.46 0-.77-.07-.93-.21-.137-.12-.183-.326-.138-.618.053-.347.185-.583.397-.704.19-.11.504-.165.943-.165.345 0 .605.032.783.097a.34.34 0 0 1 .191.186l.01-.003.05-.326c.047-.307.029-.505-.053-.595-.088-.096-.305-.144-.653-.144-.265 0-.45.016-.552.047-.187.056-.294.174-.321.353l-.014.084M53.442 19.293l-.067.447h-.465l.068-.447h.464zm-.177 1.168l-.417 2.729h-.465l.418-2.729h.464zM53.898 20.461h.462l-.075.373.013.009a.834.834 0 0 1 .473-.332 2.29 2.29 0 0 1 .64-.078c.525 0 .85.118.978.35.057.104.06.318.012.64l-.27 1.767h-.465l.264-1.733c.028-.18.037-.304.028-.373a.309.309 0 0 0-.223-.264 1.534 1.534 0 0 0-.445-.049c-.337 0-.59.058-.757.171-.175.121-.283.325-.328.614l-.248 1.634h-.476l.417-2.729zM58.877 20.461l-.05.338H57.61l-.255 1.663c-.024.167-.014.278.033.333.052.062.172.094.358.094.198 0 .334-.047.41-.14.054-.064.096-.192.124-.384l.023-.142h.422l-.028.202c-.042.278-.142.48-.3.605-.164.131-.405.196-.727.196-.469 0-.734-.116-.795-.352-.02-.074-.014-.211.017-.412l.254-1.663h-.435l.05-.338h.436l.1-.657h.464l-.099.657h1.215zM61.38 21.593c.03-.232.043-.379.037-.442-.013-.176-.089-.29-.228-.338-.112-.04-.297-.06-.554-.06-.234 0-.402.012-.506.035a.592.592 0 0 0-.398.256c-.07.113-.124.297-.16.549h1.808zm-.118.773h.464l-.012.114a.763.763 0 0 1-.537.642c-.198.07-.515.104-.95.104-.584 0-.952-.108-1.106-.326-.129-.182-.152-.537-.071-1.067.078-.518.206-.871.382-1.06.214-.226.616-.34 1.21-.34.432 0 .729.04.893.117.254.12.363.399.328.834-.007.093-.03.266-.066.52h-2.274c-.058.394-.056.646.004.755.09.154.343.23.76.23.49 0 .781-.06.873-.181.041-.055.075-.169.102-.342zM62.6 20.461h.466l-.101.316.008.008a.978.978 0 0 1 .372-.287c.172-.067.37-.1.592-.1.58 0 .832.259.752.778l-.031.188h-.466c.015-.091.027-.165.034-.221.043-.272-.109-.408-.454-.408-.338 0-.575.094-.706.283-.073.103-.129.28-.167.534l-.25 1.638h-.465l.417-2.729zM66.407 20.771c-.382 0-.65.08-.802.239-.124.129-.212.368-.265.718-.078.517-.07.84.03.974.094.124.328.187.703.187.32 0 .539-.043.653-.128.178-.13.303-.439.377-.925.07-.466.053-.763-.053-.894-.091-.114-.306-.17-.643-.17zm-1.755 2.42l.594-3.898h.465l-.232 1.521.01.006a.583.583 0 0 1 .318-.272c.204-.076.463-.115.775-.115.4 0 .677.073.834.22.205.192.26.596.168 1.211-.054.353-.134.62-.238.803-.214.373-.63.56-1.25.56-.502 0-.817-.125-.943-.376l-.014.003-.023.336h-.464zM69.385 21.849c-.326 0-.537.017-.638.054-.179.064-.286.212-.322.444-.036.238.01.392.14.462.09.053.286.08.588.08.414 0 .701-.052.862-.157.097-.063.158-.177.184-.345.036-.231-.028-.385-.19-.46-.11-.053-.318-.078-.624-.078m-.67-.62h-.465c.037-.211.088-.364.153-.46.091-.132.241-.222.453-.27.182-.043.437-.065.765-.065.303 0 .529.017.678.051.245.058.401.174.468.347.05.133.055.32.018.565l-.273 1.793h-.465l.088-.293-.01-.004a.982.982 0 0 1-.519.285c-.139.033-.34.048-.604.048-.46 0-.77-.07-.932-.21-.136-.12-.18-.326-.137-.618.054-.347.186-.583.397-.704.19-.11.505-.165.943-.165.345 0 .606.032.782.097a.335.335 0 0 1 .193.186l.01-.003.049-.326c.048-.307.03-.505-.052-.595-.087-.096-.306-.144-.654-.144-.265 0-.449.016-.552.047-.186.056-.293.174-.322.353 0 .017-.006.045-.012.084M71.607 20.461h.462l-.073.373.012.009a.827.827 0 0 1 .473-.332c.175-.051.39-.078.64-.078.524 0 .85.118.978.35.057.104.06.318.012.64l-.27 1.767h-.465l.265-1.733c.026-.18.036-.304.026-.373a.309.309 0 0 0-.223-.264A1.534 1.534 0 0 0 73 20.77c-.338 0-.59.058-.757.171-.174.121-.284.325-.328.614l-.25 1.634h-.474l.416-2.729zM76.791 22.206h.463a8.47 8.47 0 0 1-.017.14c-.056.36-.222.603-.499.733-.21.098-.54.148-.996.148-.576 0-.94-.114-1.09-.341-.122-.184-.142-.54-.06-1.07.072-.478.192-.813.357-1.002.22-.253.618-.38 1.193-.38.446 0 .76.048.937.143a.476.476 0 0 1 .26.336c.022.1.02.247-.009.44h-.46l.01-.07c.034-.228-.032-.378-.2-.447-.105-.043-.316-.065-.632-.065-.395 0-.658.102-.79.304-.07.108-.136.367-.198.778-.077.503-.041.814.106.934.084.068.325.102.721.102.34 0 .565-.041.676-.125.11-.081.185-.268.228-.558M79.986 19.339l.196.278-1.053.515-.126-.21.983-.583zm-.947 2.51c-.327 0-.538.018-.64.054-.177.064-.286.212-.32.445-.036.237.009.39.137.461.09.053.288.08.591.08.413 0 .7-.053.862-.157.096-.063.158-.178.184-.345.035-.231-.029-.385-.19-.461-.111-.052-.32-.078-.624-.078zm-.672-.621h-.463c.037-.21.087-.363.152-.46.09-.13.242-.221.454-.27a3.48 3.48 0 0 1 .764-.065c.303 0 .529.018.677.052.246.059.402.175.468.347.05.132.058.321.02.565l-.274 1.793H79.7l.087-.294-.01-.003a.964.964 0 0 1-.517.285 2.84 2.84 0 0 1-.605.048c-.46 0-.77-.07-.931-.21-.136-.12-.181-.325-.137-.618.052-.347.185-.582.397-.704.19-.11.504-.165.943-.165.344 0 .605.032.781.097a.336.336 0 0 1 .193.187l.01-.003.05-.327c.046-.307.029-.505-.053-.595-.087-.096-.305-.144-.653-.144-.266 0-.45.016-.553.047-.186.056-.294.173-.322.353a1.127 1.127 0 0 1-.013.084zM81.291 20.461h.464l-.1.316.008.008a.976.976 0 0 1 .37-.287c.173-.067.372-.1.593-.1.583 0 .832.259.754.778-.006.036-.018.099-.031.188h-.467l.034-.221c.042-.272-.11-.408-.454-.408-.34 0-.575.094-.707.283-.074.103-.128.28-.167.534l-.25 1.638h-.464l.417-2.729zM84.487 19.293l-.069.447h-.464l.067-.447h.466zm-.18 1.168l-.415 2.729h-.465l.418-2.729h.463zM85.98 21.849c-.327 0-.538.017-.638.054-.18.064-.286.212-.324.444-.035.238.013.392.139.462.09.053.287.08.59.08.413 0 .701-.052.86-.157.1-.063.16-.177.186-.345.036-.231-.027-.385-.188-.46-.113-.053-.32-.078-.626-.078m-.669-.62h-.467c.037-.211.089-.364.155-.46.09-.132.239-.222.452-.27.181-.043.437-.065.764-.065.303 0 .53.017.678.051.246.058.401.174.468.347.05.133.057.32.02.565l-.274 1.793h-.465l.088-.293-.011-.004a.974.974 0 0 1-.518.285c-.138.033-.34.048-.604.048-.461 0-.77-.07-.932-.21-.136-.12-.18-.326-.136-.618.051-.347.185-.583.396-.704.191-.11.504-.165.943-.165.345 0 .605.032.782.097.087.033.151.095.191.186l.013-.003.048-.326c.048-.307.03-.505-.053-.595-.086-.096-.306-.144-.654-.144-.263 0-.449.016-.551.047-.187.056-.294.174-.321.353-.002.017-.008.045-.012.084M90.921 20.771c-.325 0-.55.047-.675.142-.16.12-.274.404-.34.854-.064.416-.072.685-.027.81.081.208.323.312.725.312.382 0 .642-.072.778-.216.122-.13.22-.438.295-.923.062-.41.03-.68-.094-.811-.104-.112-.325-.168-.662-.168zm1.595-1.478l-.594 3.897h-.466l.086-.354-.014-.003c-.187.263-.546.394-1.074.394-.45 0-.756-.091-.918-.273-.169-.191-.21-.577-.12-1.16.053-.347.127-.608.221-.784.21-.384.61-.577 1.207-.577.327 0 .58.044.761.128.104.05.173.134.204.25l.012-.008.23-1.51h.465zM94.994 21.593c.03-.232.042-.379.038-.442-.015-.176-.09-.29-.229-.338-.112-.04-.298-.06-.556-.06-.231 0-.4.012-.503.035a.595.595 0 0 0-.4.256c-.07.113-.125.297-.16.549h1.81zm-.117.773h.462c-.004.051-.008.089-.012.114a.763.763 0 0 1-.537.642c-.197.07-.515.104-.95.104-.583 0-.951-.108-1.107-.326-.128-.182-.151-.537-.07-1.067.08-.518.206-.871.381-1.06.215-.226.617-.34 1.212-.34.431 0 .728.04.892.117.254.12.365.399.33.834-.01.093-.03.266-.069.52h-2.272c-.059.394-.057.646.004.755.088.154.342.23.758.23.49 0 .782-.06.875-.181.042-.055.075-.169.103-.342zM100.014 21.177h-.465c.029-.214-.025-.345-.162-.394-.062-.02-.255-.03-.58-.03-.309 0-.502.01-.576.031-.176.05-.279.173-.31.372-.036.241.008.38.134.42.059.019.272.036.638.05.417.018.658.03.72.04.403.06.568.31.501.755-.044.286-.16.491-.345.615-.192.128-.574.19-1.143.19-.51 0-.854-.06-1.027-.184-.155-.112-.212-.298-.173-.56.006-.04.013-.092.028-.16h.478a.866.866 0 0 0-.038.131c-.03.191.012.318.123.38.084.049.3.074.643.074.392 0 .654-.037.787-.111.106-.061.173-.187.203-.378.025-.166.015-.276-.032-.333-.054-.064-.174-.098-.359-.1-.576-.005-.978-.033-1.203-.082-.197-.041-.325-.127-.382-.257-.045-.104-.051-.255-.022-.453.043-.29.148-.486.314-.585.196-.115.567-.175 1.109-.175.395 0 .674.029.83.085.26.094.366.28.326.56l-.017.099zM102.729 21.593c.031-.232.044-.379.037-.442-.012-.176-.088-.29-.228-.338-.111-.04-.296-.06-.554-.06-.233 0-.401.012-.504.035a.592.592 0 0 0-.4.256c-.07.113-.124.297-.16.549h1.809zm-.118.773h.464c-.006.051-.008.089-.011.114-.05.318-.228.532-.539.642-.197.07-.513.104-.948.104-.583 0-.953-.108-1.106-.326-.13-.182-.153-.537-.072-1.067.079-.518.206-.871.382-1.06.213-.226.616-.34 1.211-.34.43 0 .727.04.892.117.254.12.365.399.329.834a9.45 9.45 0 0 1-.067.52h-2.273c-.058.394-.057.646.004.755.089.154.343.23.759.23.49 0 .782-.06.874-.181.042-.055.075-.169.1-.342zM103.95 20.461h.465l-.1.316.007.008a1 1 0 0 1 .37-.287c.175-.067.372-.1.595-.1.581 0 .83.259.752.778-.006.036-.016.099-.033.188h-.463l.033-.221c.042-.272-.11-.408-.455-.408-.338 0-.575.094-.706.283-.073.103-.128.28-.165.534l-.252 1.638h-.464l.416-2.729zM108.972 20.461l-1.47 2.729h-.664l-.631-2.729h.473l.536 2.418h.013l.228-.465.24-.463.76-1.49zM109.812 19.293l-.068.447h-.465l.067-.447h.466zm-.178 1.168l-.416 2.729h-.466l.417-2.729h.465zM111.056 23.473l.295.157-.541.554-.243-.119.49-.592zm1.095-1.267h.465l-.02.14c-.055.36-.22.604-.496.733-.209.098-.542.147-.997.147-.577 0-.94-.113-1.09-.34-.123-.184-.143-.54-.063-1.07.074-.478.194-.813.36-1.002.22-.253.618-.38 1.193-.38.445 0 .758.048.938.143.14.076.228.188.26.337.021.099.02.246-.008.44h-.464l.012-.072c.034-.228-.033-.377-.2-.446-.106-.043-.315-.065-.633-.065-.393 0-.657.102-.79.304-.068.108-.135.367-.198.778-.077.503-.041.815.106.934.085.068.325.102.721.102.338 0 .565-.041.676-.125.11-.081.187-.268.228-.558zM114.519 20.771c-.37 0-.61.037-.722.11-.153.103-.27.41-.349.921-.082.552-.062.878.06.98.087.071.318.107.691.107.367 0 .605-.036.713-.108.154-.102.272-.419.353-.95.08-.533.06-.848-.063-.95-.09-.073-.317-.11-.683-.11m.05-.338c.518 0 .855.065 1.015.194.206.168.262.57.165 1.203-.051.331-.106.574-.167.727-.118.291-.3.48-.541.567-.192.068-.487.103-.887.103-.528 0-.87-.065-1.026-.193-.144-.117-.219-.311-.225-.582a4.349 4.349 0 0 1 .063-.659c.095-.611.27-1 .528-1.166.2-.129.558-.194 1.076-.194M118.828 21.177h-.465c.03-.214-.026-.345-.163-.394-.062-.02-.255-.03-.58-.03-.31 0-.502.01-.576.031-.176.05-.278.173-.308.372-.037.241.008.38.134.42.057.019.272.036.638.05.416.018.656.03.72.04.4.06.568.31.5.755-.044.286-.158.491-.345.615-.191.128-.573.19-1.143.19-.512 0-.852-.06-1.026-.184-.158-.112-.215-.298-.175-.56l.027-.16h.479c-.02.061-.033.105-.037.131-.028.191.011.318.122.38.085.049.299.074.645.074.392 0 .654-.037.784-.111.108-.061.175-.187.206-.378.023-.166.013-.276-.034-.333-.054-.064-.173-.098-.359-.1-.574-.005-.976-.033-1.203-.082-.198-.041-.323-.127-.38-.257-.045-.104-.053-.255-.023-.453.045-.29.147-.486.313-.585.198-.115.566-.175 1.109-.175.395 0 .673.029.83.085.26.094.369.28.326.56l-.016.099zM123.352 21.177h-.465c.028-.214-.028-.345-.165-.394-.06-.02-.253-.03-.577-.03-.312 0-.505.01-.58.031-.175.05-.277.173-.307.372-.038.241.008.38.134.42.06.019.272.036.638.05.418.018.659.03.72.04.4.06.569.31.5.755-.044.286-.159.491-.345.615-.19.128-.573.19-1.142.19-.513 0-.853-.06-1.027-.184-.156-.112-.214-.298-.175-.56.006-.04.015-.092.028-.16h.478c-.02.061-.032.105-.038.131-.027.191.012.318.123.38.084.049.301.074.646.074.392 0 .654-.037.784-.111.107-.061.175-.187.205-.378.023-.166.013-.276-.034-.333-.054-.064-.171-.098-.356-.1-.577-.005-.98-.033-1.206-.082-.195-.041-.323-.127-.38-.257-.045-.104-.053-.255-.024-.453.046-.29.15-.486.314-.585.198-.115.569-.175 1.109-.175.397 0 .674.029.833.085.258.094.366.28.323.56l-.014.099zM124.232 22.661l-.08.529h-.534l.08-.529zM126.245 21.849c-.325 0-.538.017-.638.054-.18.064-.285.212-.32.444-.036.238.01.392.135.462.093.053.288.08.593.08.41 0 .698-.052.86-.157.097-.063.158-.177.184-.345.035-.231-.028-.385-.19-.46-.11-.053-.32-.078-.624-.078m-.67-.62h-.464c.035-.211.087-.364.151-.46.091-.132.242-.222.454-.27.182-.043.437-.065.765-.065.301 0 .528.017.677.051.245.058.403.174.468.347.05.133.057.32.019.565l-.273 1.793h-.466l.09-.293-.01-.004a.983.983 0 0 1-.52.285c-.139.033-.341.048-.603.048-.461 0-.772-.07-.933-.21-.137-.12-.181-.326-.137-.618.054-.347.185-.583.397-.704.19-.11.504-.165.943-.165.345 0 .607.032.782.097.086.033.15.095.192.186l.01-.003.05-.326c.048-.307.029-.505-.053-.595-.087-.096-.306-.144-.653-.144-.265 0-.45.016-.553.047-.185.056-.293.174-.32.353a1.55 1.55 0 0 1-.012.084M128.656 22.661l-.08.529h-.534l.08-.529zM129.66 20.461h.465l-.1.316.01.008a.965.965 0 0 1 .37-.287c.17-.067.37-.1.592-.1.58 0 .832.259.753.778-.006.036-.018.099-.031.188h-.468c.016-.091.029-.165.036-.221.041-.272-.11-.408-.456-.408-.338 0-.574.094-.706.283-.073.103-.128.28-.167.534l-.249 1.638h-.464l.415-2.729zM131.537 22.661l-.08.529h-.534l.08-.529zM133.147 19.293l-.595 3.897h-.465l.594-3.897z"/>
        <g transform="translate(132.46 22.085)">
            <mask id="f" fill="#fff">
                <use xlink:href="#e"/>
            </mask>
            <path fill="#FFF" d="M1.33.576l-.08.528H.717l.08-.528z" mask="url(#f)"/>
        </g>
    </g>
</svg>
