<svg width="19" height="19" xmlns="http://www.w3.org/2000/svg">
    <g fill="#346799" fill-rule="nonzero">
        <path d="m8.353 11.077 3.02-4.717a1.203 1.203 0 0 1 2.028 1.298l-3.83 5.981a1.203 1.203 0 0 1-1.867.2L5.1 11.215a1.203 1.203 0 0 1 1.707-1.695l1.546 1.556z"/>
        <path d="M5.278 2.111A3.167 3.167 0 0 0 2.11 5.278v8.444a3.167 3.167 0 0 0 3.167 3.167h8.444a3.167 3.167 0 0 0 3.167-3.167V5.278a3.167 3.167 0 0 0-3.167-3.167H5.278zm0-2.111h8.444A5.278 5.278 0 0 1 19 5.278v8.444A5.278 5.278 0 0 1 13.722 19H5.278A5.278 5.278 0 0 1 0 13.722V5.278A5.278 5.278 0 0 1 5.278 0z"/>
    </g>
</svg>
