<svg width="114" height="114" xmlns="http://www.w3.org/2000/svg">
    <g fill-rule="nonzero" fill="none">
        <circle fill="#FFF" cx="57" cy="57" r="57"/>
        <path d="m85.83 47.14-6.12-19.505a1 1 0 0 0-.953-.7H37.283a1 1 0 0 0-.923.614l-8.157 19.5v.002l-.002.003a.988.988 0 0 0-.069.345c0 .014-.008.026-.008.04v5.671a7.949 7.949 0 0 0 2.804 6.057v26.898a1 1 0 0 0 1 1h50.144a1 1 0 0 0 1-1V59.167a7.949 7.949 0 0 0 2.804-6.057v-5.67a1.177 1.177 0 0 1-.046-.3zM32.928 85.065V75.21h48.144v9.855H32.928zM81.072 73.21H32.928V60.42a7.952 7.952 0 0 0 10.135-3.454 7.96 7.96 0 0 0 13.937 0 7.96 7.96 0 0 0 13.938 0 7.952 7.952 0 0 0 10.134 3.454v12.79zm-3.166-14.13a5.976 5.976 0 0 1-5.968-5.97 1 1 0 0 0-2 0 5.969 5.969 0 0 1-11.938 0 1 1 0 0 0-2 0 5.969 5.969 0 0 1-11.937 0 1 1 0 0 0-2 0 5.97 5.97 0 0 1-11.939 0v-4.67h53.752v4.67a5.976 5.976 0 0 1-5.97 5.97z" fill="#346799"/>
    </g>
</svg>
