<svg width="12" height="12" xmlns="http://www.w3.org/2000/svg">
    <path d="m.2 10.864 2.942-2.946a4.912 4.912 0 0 1 .444-6.47A4.888 4.888 0 0 1 7.072 0c1.266 0 2.515.477 3.485 1.449a4.942 4.942 0 0 1 0 6.979 4.888 4.888 0 0 1-3.485 1.449 4.846 4.846 0 0 1-2.976-1.005l-2.96 2.93A.658.658 0 0 1 .66 12a.686.686 0 0 1-.477-.198.672.672 0 0 1 .016-.938zm6.855-2.32c.97 0 1.858-.38 2.549-1.054C11 6.09 11 3.802 9.604 2.387a3.578 3.578 0 0 0-2.549-1.054c-.97 0-1.858.379-2.548 1.054s-1.052 1.58-1.052 2.551c0 .971.378 1.86 1.052 2.552a3.539 3.539 0 0 0 2.548 1.053z" fill="#ffffff" fill-rule="nonzero"/>
</svg>
